<svg xmlns="http://www.w3.org/2000/svg" viewBox="0 0 24.512 29.961"><path fill="#373f47" d="M22.476 0H2.042A2.044 2.044 0 000 2.042v25.875a2.044 2.044 0 002.042 2.043h20.429a2.044 2.044 0 002.042-2.043V2.042A2.044 2.044 0 0022.476 0zm.68 27.917a.681.681 0 01-.68.681H2.042a.683.683 0 01-.681-.681V2.042a.681.681 0 01.681-.68h20.429a.68.68 0 01.68.68z"/><path fill="#373f47" d="M12.26 20.428a8.852 8.852 0 10-8.852-8.852 8.852 8.852 0 008.852 8.852zm0-16.343a7.49 7.49 0 11-7.49 7.49 7.49 7.49 0 017.49-7.49z"/><path fill="#373f47" d="M12.261 14.299a2.723 2.723 0 10-2.723-2.723 2.727 2.727 0 002.723 2.723zm0-4.085a1.362 1.362 0 11-1.361 1.363 1.361 1.361 0 011.361-1.363zm4.768 11.575h-1.362a.681.681 0 00-.681.681v4.085a.682.682 0 00.681.681h1.362a2.046 2.046 0 002.043-2.043v-1.361a2.045 2.045 0 00-2.043-2.043zm.681 3.4a.683.683 0 01-.681.681h-.681v-2.723h.681a.681.681 0 01.681.681zm-5.449-3.4H10.9a.68.68 0 00-.681.679v4.087a.68.68 0 00.679.681h1.363a2.046 2.046 0 002.043-2.043v-1.361a2.045 2.045 0 00-2.043-2.043zm.681 3.4a.68.68 0 01-.679.681h-.683v-2.723h.681a.68.68 0 01.681.679v1.363zm-4.086-3.4a.68.68 0 00-.681.679v1.364H6.813v-1.366a.681.681 0 00-1.362 0v4.085a.681.681 0 001.362.014v-1.376h1.362v1.362a.681.681 0 001.362.014v-4.1a.681.681 0 00-.681-.681z"/></svg>