<svg xmlns="http://www.w3.org/2000/svg" viewBox="0 0 26.62 26.614"><path fill="#373f47" d="M25.955 0H.666A.666.666 0 000 .666v25.282a.666.666 0 00.666.666h25.288a.666.666 0 00.666-.666V.666A.665.665 0 0025.955 0zm-.666 25.285H1.338V5.315h23.951zm0-21.3H1.338v-2.65h23.951z"/><path fill="#373f47" d="M21.054 20.137l-2.855-2.854 1.344-1.343a.678.678 0 00-.006-.957.7.7 0 00-.256-.157l-8.733-2.913a.674.674 0 00-.853.852l2.912 8.735a.675.675 0 00.854.422.688.688 0 00.259-.16l1.342-1.343 2.857 2.855a.666.666 0 00.476.2.664.664 0 00.423-.151l2.237-2.231a.674.674 0 000-.952zm-4.282-2.378l2.854 2.855-1.235 1.23-2.856-2.855a.673.673 0 00-.954 0l-1.043 1.045-2.14-6.419 6.42 2.141-1.049 1.047a.678.678 0 00.003.956zm-6.552-7.736a.675.675 0 00.674-.674V7.192a.676.676 0 00-.673-.644h-.031a.673.673 0 00-.644.65V9.35a.679.679 0 00.674.673zm-4.412-.964l1.757 1.676a.665.665 0 00.45.174h.036a.667.667 0 00.466-.222.675.675 0 00-.008-.912L6.76 8.107a.675.675 0 00-1.17.423.663.663 0 00.17.481.369.369 0 00.048.048zm1.788 5.046l-1.278 1.279a.673.673 0 00.45 1.175.693.693 0 00.46-.177l1.278-1.279a.676.676 0 10-.91-1zm4.825-3.195a.674.674 0 00.452-.175l1.246-1.247a.676.676 0 10-.91-1l-1.289 1.29a.676.676 0 00.5 1.128zm-4.616 1.528a.678.678 0 00-.674-.675H4.974a.675.675 0 00.007 1.349h2.151a.68.68 0 00.673-.674zM23.892 1.677a.888.888 0 10.888.888.888.888 0 00-.888-.888zm-2.42 0a.888.888 0 10.888.888.888.888 0 00-.888-.888zm-2.418 0a.888.888 0 10.888.888.888.888 0 00-.888-.888z"/></svg>