<svg xmlns="http://www.w3.org/2000/svg" viewBox="0 0 24.513 29.959"><path fill="#373f47" d="M22.47 0H2.043A2.045 2.045 0 000 2.043v25.873a2.045 2.045 0 002.043 2.043H22.47a2.045 2.045 0 002.043-2.043V2.043A2.045 2.045 0 0022.47 0zM4.77 28.6v-2.043h1.362V28.6zm2.724 0v-2.043h1.362V28.6zm2.724 0v-2.043h1.361V28.6zm2.723 0v-2.043h1.358V28.6zm2.724 0v-2.043h1.362V28.6zm2.724 0v-2.043h1.361V28.6zm4.766-.681a.682.682 0 01-.681.681h-1.365v-2.043a1.364 1.364 0 00-1.362-1.362H4.766a1.363 1.363 0 00-1.361 1.362V28.6H2.043a.682.682 0 01-.681-.681V2.043a.681.681 0 01.681-.681H22.47a.682.682 0 01.681.681z"/><path fill="#373f47" d="M8.854 12.255a.681.681 0 000-1.362H7.492a1.365 1.365 0 00-1.362 1.362v.681a1.365 1.365 0 001.362 1.362h.681v.681H6.811a.681.681 0 00-.013 1.362h1.375a1.365 1.365 0 001.362-1.362v-.681a1.364 1.364 0 00-1.362-1.362h-.681v-.681zm4.084 0a.681.681 0 000-1.362h-1.362a1.363 1.363 0 00-1.361 1.362v.681a1.363 1.363 0 001.361 1.362h.683v.681h-1.363a.681.681 0 00-.014 1.362h1.377a1.363 1.363 0 001.362-1.362v-.681a1.363 1.363 0 00-1.362-1.362h-.681v-.681zm3.405-1.362h-1.362a.682.682 0 00-.681.681v4.086a.682.682 0 00.681.681h1.362a2.047 2.047 0 002.043-2.043v-1.362a2.046 2.046 0 00-2.043-2.043zm.681 3.4a.683.683 0 01-.681.681h-.681V12.25h.681a.682.682 0 01.681.681z"/><path fill="#373f47" d="M21.11 17.703v-8.17a1.362 1.362 0 00-1.362-1.362H4.768a1.361 1.361 0 00-1.361 1.362v8.17a1.361 1.361 0 001.361 1.362h14.98a1.362 1.362 0 001.362-1.362zm-16.342 0v-8.17h14.98v8.17z"/></svg>