<svg xmlns="http://www.w3.org/2000/svg" viewBox="0 0 50 29"><g fill="#101922" stroke="#fff" opacity=".1"><rect width="50" height="29" rx="2" stroke="none"/><rect width="49" height="28" x=".5" y=".5" fill="none" rx="1.5"/></g><path fill="#f4a929" d="M7 9.35a3.21 3.21 0 011.47-.15c1.12.03 2.25-.03 3.37.02a1.06 1.06 0 011.01.91l1.02 5.16a8.28 8.28 0 00-3.85-4.7A14.7 14.7 0 007 9.34z"/><path fill="#fff" d="M16.77 9.2h2.92c-1.48 3.55-2.86 7.14-4.37 10.67-.94-.03-1.9-.01-2.84-.01-.84-3.09-1.63-6.19-2.46-9.28a8.28 8.28 0 013.85 4.71c.09.4.15.8.23 1.19q1.32-3.64 2.67-7.28zm4.01 0h2.75c-.56 3.55-1.16 7.1-1.7 10.66h-2.74c.52-3.56 1.14-7.1 1.7-10.66zm5.35.67a6.54 6.54 0 015.6-.46c-.08.8-.21 1.57-.35 2.35a4.65 4.65 0 00-3.14-.4c-.5.12-.98.74-.57 1.2.85.87 2.18 1.07 2.97 2.01a2.92 2.92 0 01.26 3.5 4.3 4.3 0 01-3.18 1.87 8.62 8.62 0 01-4.2-.49l.4-2.39a5.56 5.56 0 003.74.6 1.08 1.08 0 00.84-1c-.15-.61-.78-.87-1.27-1.15a4.52 4.52 0 01-2.4-2.08 3.07 3.07 0 011.3-3.56zm12.65-.66c-.84.02-1.69-.03-2.53.03-.57.03-.93.56-1.11 1.05l-3.99 9.58h2.88c.2-.53.4-1.07.58-1.61h3.51l.34 1.6H41L38.78 9.22zm-3.37 6.85c.5-1.31.93-2.67 1.5-3.97.17 1.34.5 2.65.77 3.98h-2.27z"/></svg>