<svg xmlns="http://www.w3.org/2000/svg" viewBox="0 0 50 29"><g fill="#101922" stroke="#fff" opacity=".1"><rect width="50" height="29" rx="2" stroke="none"/><rect width="49" height="28" x=".5" y=".5" fill="none" rx="1.5"/></g><path fill="#fff" d="M38.35 24.27v.06h.05a.05.05 0 00.03-.01.02.02 0 000-.02.02.02 0 000-.02.05.05 0 00-.03 0zm.05-.03a.1.1 0 01.06.01.06.06 0 01.02.05.06.06 0 01-.02.04.08.08 0 01-.04.02l.06.08h-.05l-.06-.08h-.02v.08h-.04v-.2zm-.01.27a.16.16 0 00.06-.01.17.17 0 00.06-.04.17.17 0 00.03-.05.17.17 0 00.02-.07.17.17 0 00-.02-.07.18.18 0 00-.03-.05.17.17 0 00-.06-.04.17.17 0 00-.06-.01.18.18 0 00-.07.01.17.17 0 00-.06.04.17.17 0 00-.03.05.17.17 0 00-.01.07.17.17 0 000 .07.16.16 0 00.04.05.17.17 0 00.06.04.17.17 0 00.07 0m0-.38a.22.22 0 01.08.02.22.22 0 01.07.04.21.21 0 01.05.07.2.2 0 01.02.09.2.2 0 01-.02.08.23.23 0 01-.05.07.24.24 0 01-.07.05.22.22 0 01-.08.02.22.22 0 01-.1-.02.23.23 0 01-.06-.05.23.23 0 01-.05-.07.21.21 0 01-.02-.08.21.21 0 01.02-.09.21.21 0 01.05-.07.21.21 0 01.07-.04.22.22 0 01.09-.02m-20.6-.79a.66.66 0 01.67-.7.66.66 0 01.66.7.66.66 0 01-.66.71.66.66 0 01-.67-.7m1.79 0v-1.1h-.48v.26a.84.84 0 00-.7-.32 1.1 1.1 0 00-1.1 1.16 1.1 1.1 0 001.1 1.16.84.84 0 00.7-.33v.27h.48zm16.22 0a.66.66 0 01.67-.71.66.66 0 01.66.7.66.66 0 01-.66.71.66.66 0 01-.67-.7m1.79 0v-2h-.48v1.16a.84.84 0 00-.7-.33 1.1 1.1 0 00-1.1 1.16 1.1 1.1 0 001.1 1.16.84.84 0 00.7-.32v.27h.48zm-12.06-.74a.55.55 0 01.56.54h-1.14a.57.57 0 01.58-.54m.01-.43a1.08 1.08 0 00-1.1 1.16 1.09 1.09 0 001.14 1.16 1.34 1.34 0 00.9-.3l-.23-.36a1.06 1.06 0 01-.65.23.61.61 0 01-.66-.54h1.64l.01-.19a1.06 1.06 0 00-1.04-1.16m5.8 1.16a.66.66 0 01.67-.7.66.66 0 01.66.7.66.66 0 01-.66.7.66.66 0 01-.67-.7m1.78 0v-1.1h-.48v.27a.84.84 0 00-.7-.32 1.1 1.1 0 00-1.1 1.16 1.1 1.1 0 001.1 1.15.84.84 0 00.7-.32v.27h.48zm-4.5 0a1.11 1.11 0 001.18 1.16 1.16 1.16 0 00.8-.26l-.23-.39a.97.97 0 01-.58.2.66.66 0 01-.67-.7.66.66 0 01.67-.71.97.97 0 01.58.2l.23-.4a1.16 1.16 0 00-.8-.25 1.11 1.11 0 00-1.18 1.15m6.2-1.15a.65.65 0 00-.59.32v-.27h-.48v2.2h.49V23.2c0-.36.15-.57.47-.57a.78.78 0 01.3.06l.14-.45a1.02 1.02 0 00-.34-.06m-12.87.23a1.65 1.65 0 00-.9-.23c-.56 0-.92.26-.92.7 0 .36.27.59.77.65l.22.04c.27.03.4.1.4.23 0 .17-.18.27-.5.27a1.18 1.18 0 01-.74-.24l-.23.38a1.6 1.6 0 00.96.29c.64 0 1-.3 1-.73 0-.38-.29-.59-.77-.66l-.22-.03c-.21-.03-.38-.07-.38-.22s.16-.25.42-.25a1.42 1.42 0 01.7.18zm6.2-.23a.65.65 0 00-.58.32v-.27h-.48v2.21h.48V23.2c0-.36.16-.57.47-.57a.78.78 0 01.3.06l.15-.45a1.02 1.02 0 00-.34-.06m-4.1.05h-.79v-.67h-.48v.67h-.45v.44h.45v1c0 .52.2.83.76.83a1.13 1.13 0 00.6-.17L24 23.9a.89.89 0 01-.42.13c-.24 0-.32-.15-.32-.37v-1h.79zm-7.18 2.21v-1.38a.82.82 0 00-.87-.88.85.85 0 00-.78.39.81.81 0 00-.73-.4.73.73 0 00-.64.34v-.28h-.48v2.21h.48v-1.22a.52.52 0 01.54-.59c.32 0 .48.2.48.58v1.23h.49v-1.22a.52.52 0 01.54-.59c.32 0 .48.2.48.58v1.23z"/><path fill="#f79410" d="M38.65 17.1v-.33h-.09l-.1.22-.1-.22h-.08v.32h.06v-.24l.09.21h.06l.1-.2v.24zm-.54 0v-.27h.11v-.06h-.27v.06h.1v.26z"/><path fill="#ff5f00" d="M29.09 18.48H21.8V5.41h7.27z"/><path fill="#eb001b" d="M22.28 11.95a8.3 8.3 0 013.17-6.54 8.28 8.28 0 00-5.14-1.78A8.31 8.31 0 0012 11.95a8.31 8.31 0 008.31 8.31 8.28 8.28 0 005.14-1.78 8.3 8.3 0 01-3.17-6.53"/><path fill="#f79e1b" d="M38.9 11.95a8.31 8.31 0 01-8.31 8.31 8.28 8.28 0 01-5.14-1.78 8.3 8.3 0 003.17-6.53 8.3 8.3 0 00-3.17-6.54 8.28 8.28 0 015.14-1.78 8.31 8.31 0 018.31 8.32"/></svg>