<svg xmlns="http://www.w3.org/2000/svg" viewBox="0 0 78 29"><g fill="#101922" stroke="#fff" opacity=".1"><rect width="78" height="29" rx="2" stroke="none"/><rect width="77" height="28" x=".5" y=".5" fill="none" rx="1.5"/></g><path fill="#253b80" d="M31.25 10.13h-3.4a.47.47 0 00-.47.4l-1.37 8.71a.28.28 0 00.28.33h1.62a.47.47 0 00.47-.4l.37-2.35a.47.47 0 01.46-.4h1.08a3.49 3.49 0 003.86-3.23 2.62 2.62 0 00-.43-2.19 3.15 3.15 0 00-2.47-.87zm.4 3.18c-.2 1.22-1.12 1.22-2.02 1.22h-.52l.36-2.27a.28.28 0 01.28-.24H30c.61 0 1.19 0 1.49.35a1.13 1.13 0 01.16.94zm9.75-.04h-1.63a.28.28 0 00-.28.24l-.07.46-.11-.17a2.31 2.31 0 00-1.92-.68 3.74 3.74 0 00-3.63 3.27 3.07 3.07 0 00.6 2.5 2.54 2.54 0 002.05.83 3.11 3.11 0 002.25-.93l-.07.45a.28.28 0 00.28.33h1.46a.47.47 0 00.47-.4l.88-5.57a.28.28 0 00-.28-.33zm-2.27 3.17a1.81 1.81 0 01-1.83 1.55 1.26 1.26 0 01-1.35-1.58 1.82 1.82 0 011.82-1.56 1.37 1.37 0 011.09.44 1.4 1.4 0 01.27 1.15zm10.93-3.17h-1.63a.47.47 0 00-.4.21l-2.25 3.32-.95-3.19a.47.47 0 00-.46-.34h-1.6a.28.28 0 00-.27.38l1.8 5.28-1.7 2.39a.28.28 0 00.24.45h1.63a.47.47 0 00.39-.2l5.43-7.85a.28.28 0 00-.23-.44z"/><path fill="#179bd7" d="M55.47 10.13h-3.4a.47.47 0 00-.46.4l-1.38 8.71a.28.28 0 00.28.33h1.75a.33.33 0 00.32-.28l.4-2.47a.47.47 0 01.46-.4h1.07a3.49 3.49 0 003.87-3.23 2.61 2.61 0 00-.43-2.19 3.15 3.15 0 00-2.48-.87zm.4 3.18c-.2 1.22-1.12 1.22-2.02 1.22h-.51l.36-2.27a.28.28 0 01.27-.24h.24c.61 0 1.2 0 1.49.35a1.13 1.13 0 01.16.94zm9.75-.04H64a.28.28 0 00-.28.24l-.07.46-.12-.17a2.31 2.31 0 00-1.92-.68 3.74 3.74 0 00-3.63 3.27 3.07 3.07 0 00.6 2.5 2.55 2.55 0 002.06.83 3.11 3.11 0 002.25-.93l-.08.45a.28.28 0 00.28.33h1.47a.47.47 0 00.46-.4l.88-5.57a.28.28 0 00-.28-.33zm-2.26 3.17a1.81 1.81 0 01-1.84 1.55 1.26 1.26 0 01-1.35-1.58A1.82 1.82 0 0162 14.85a1.37 1.37 0 011.09.44 1.4 1.4 0 01.28 1.15zm4.18-6.07l-1.4 8.87a.28.28 0 00.29.33h1.4a.47.47 0 00.46-.4l1.38-8.71a.28.28 0 00-.28-.33h-1.57a.28.28 0 00-.28.24z"/><path fill="#253b80" d="M11.91 21.26l.26-1.65-.58-.01H8.83l1.92-12.18a.16.16 0 01.16-.13h4.65a4.15 4.15 0 013.17.96 2.18 2.18 0 01.51.95 3.44 3.44 0 010 1.31v.38l.26.14a1.83 1.83 0 01.53.4 1.88 1.88 0 01.43.97 4.07 4.07 0 01-.07 1.4 4.92 4.92 0 01-.57 1.58 3.25 3.25 0 01-.9 1 3.68 3.68 0 01-1.22.54 6.09 6.09 0 01-1.53.18h-.36a1.09 1.09 0 00-1.08.92l-.02.14-.46 2.91-.02.1a.1.1 0 01-.03.07.08.08 0 01-.05.02H11.9z"/><path fill="#179bd7" d="M19.75 10.59l-.05.27c-.61 3.16-2.72 4.25-5.4 4.25h-1.37a.66.66 0 00-.65.56l-.7 4.43-.2 1.26a.35.35 0 00.34.4h2.43a.58.58 0 00.57-.49l.03-.12.45-2.9.03-.16a.58.58 0 01.58-.5h.36c2.35 0 4.19-.95 4.73-3.7a3.16 3.16 0 00-.5-2.8 2.32 2.32 0 00-.65-.5z"/><path fill="#222d65" d="M19.1 10.33a4.84 4.84 0 00-.6-.13 7.59 7.59 0 00-1.2-.09h-3.65a.58.58 0 00-.58.5l-.77 4.92-.03.14a.66.66 0 01.66-.56h1.37c2.68 0 4.78-1.1 5.4-4.25l.05-.27a3.27 3.27 0 00-.51-.21l-.14-.04z"/><path fill="#253b80" d="M13.08 10.6a.58.58 0 01.57-.49h3.65a7.59 7.59 0 011.2.1 4.84 4.84 0 01.74.17 3.32 3.32 0 01.5.21 2.98 2.98 0 00-.63-2.68 4.63 4.63 0 00-3.55-1.13H10.9a.67.67 0 00-.65.57L8.3 19.65a.4.4 0 00.4.46h2.87l.72-4.59.78-4.91z"/></svg>